<?xml version="1.0" encoding="utf-8"?>
<!-- Generator: Adobe Illustrator 21.1.0, SVG Export Plug-In . SVG Version: 6.00 Build 0)  -->
<svg version="1.1" id="Calque_1" xmlns="http://www.w3.org/2000/svg" xmlns:xlink="http://www.w3.org/1999/xlink" x="0px" y="0px"
	 viewBox="0 0 432 432" style="enable-background:new 0 0 432 432;" xml:space="preserve">
<style type="text/css">
	.st0{fill:#6E3C3F;}
	.st1{fill:#E3635C;}
	.st2{fill:#343434;}
	.st3{fill:#B1C369;}
	.st4{fill:#A490C4;}
	.st5{fill:#A2C1DB;}
	.st6{fill:#AFB67B;}
	.st7{fill:#4F4747;}
	.st8{fill:#AA6555;}
	.st9{fill:#93C6E3;}
	.st10{fill:#9C3A47;}
	.st11{fill:#52B5C3;}
	.st12{fill:#4B6C2A;}
	.st13{fill:#F4A38D;}
	.st14{fill:#6A8E2D;}
	.st15{fill:#EE7A9F;}
	.st16{fill:#F7DA6A;}
	.st17{fill:#E2991A;}
	.st18{fill:#A7B7BE;}
	.st19{fill:#E8D8CA;}
	.st20{fill:#A1A499;}
	.st21{fill:#C42725;}
	.st22{fill:#DBDC50;}
	.st23{fill:#020203;}
	.st24{fill:#92AA3C;}
	.st25{fill:#DFB87F;}
	.st26{fill:#7E4E1C;}
	.st27{fill:#BBCC53;}
	.st28{fill:#BA5C78;}
	.st29{fill:#85924F;}
	.st30{fill:#7C1142;}
	.st31{fill:#3B322E;}
	.st32{fill:#3B6C51;}
	.st33{fill:#C1292E;}
	.st34{fill:#CDCCCC;}
	.st35{fill:#886649;}
	.st36{fill:#F9B03D;}
	.st37{fill:#7D8C5B;}
	.st38{fill:#0D341E;}
	.st39{fill:#4D8F53;}
	.st40{fill:#1B1B1B;}
	.st41{fill:#F39323;}
	.st42{fill:#E7E6E6;}
	.st43{fill:#9A908B;}
	.st44{fill:#548981;}
	.st45{fill:#89525A;}
	.st46{fill:#AB9AB1;}
	.st47{fill:#5E676E;}
	.st48{fill:#DDDBCA;}
	.st49{fill:#56463E;}
	.st50{fill:#457885;}
	.st51{fill:#FFFFFF;}
	.st52{fill:#E69678;}
	.st53{fill:#A5AB9B;}
	.st54{fill:#855354;}
	.st55{fill:#DE8F6E;}
	.st56{fill:#C19D63;}
	.st57{fill:#837F62;}
	.st58{fill:#7D8769;}
	.st59{fill:#39466A;}
	.st60{fill:#4E4D4D;}
	.st61{fill:#673E44;}
	.st62{fill:#CEB283;}
	.st63{fill:#8890A4;}
	.st64{fill:#99B8B3;}
	.st65{fill:#A0747A;}
	.st66{fill:#BB839E;}
	.st67{fill:#E5DA9B;}
	.st68{fill:#BA9BC9;}
	.st69{fill:#8CACB5;}
	.st70{fill:#746458;}
	.st71{fill:#34354B;}
	.st72{fill:#6A8188;}
	.st73{fill:#B4B4B4;}
	.st74{fill:#97CB9E;}
	.st75{fill:#EE7896;}
	.st76{fill:#785F63;}
	.st77{fill:#E4A87C;}
	.st78{fill:#98D5E8;}
	.st79{fill:#CB6083;}
	.st80{fill:#9A9999;}
	.st81{fill:#C49A6C;}
	.st82{fill:#EC96AB;}
	.st83{fill:#ED87AB;}
	.st84{fill:#E2B471;}
	.st85{fill:#59B465;}
	.st86{fill:#4C996E;}
	.st87{fill:#A84F6B;}
	.st88{fill:#6BC4CD;}
	.st89{fill:#D6809C;}
	.st90{fill:#9DD0B3;}
	.st91{fill:#F3AA9A;}
	.st92{fill:#F29292;}
	.st93{fill:#BBBBBB;}
	.st94{fill:#5B5242;}
	.st95{fill:#8CCDC6;}
	.st96{fill:#EAC892;}
	.st97{fill:#F4B0CC;}
	.st98{fill:#7A6350;}
	.st99{fill:#9FC64B;}
	.st100{fill:#A68C6D;}
	.st101{fill:#F1D3D4;}
	.st102{fill:#BE8BBE;}
	.st103{fill:#F49523;}
	.st104{fill:#789835;}
	.st105{fill:#8FA369;}
	.st106{fill:#B17081;}
	.st107{fill:#E1B63D;}
	.st108{fill:#B05274;}
	.st109{fill:#CA9256;}
	.st110{fill:#A9A9AA;}
	.st111{fill:#BE202E;}
	.st112{fill-rule:evenodd;clip-rule:evenodd;fill:#A9A9AA;}
	.st113{fill:#89657B;}
	.st114{fill:#7F95B7;}
	.st115{fill:#9F9EC6;}
	.st116{fill:#7F6178;}
	.st117{fill:#6D8999;}
	.st118{fill:#A0C07E;}
	.st119{fill:#AA779F;}
	.st120{fill:#FBC063;}
	.st121{fill:#80A0C2;}
	.st122{fill:#CFAC75;}
	.st123{fill:#CD94C2;}
	.st124{fill:#AAB6DE;}
	.st125{fill:#CCAE99;}
	.st126{fill:#86B69F;}
	.st127{fill:#555D57;}
	.st128{fill:#86C1BB;}
	.st129{fill:#CA856C;}
	.st130{fill:#A4AA6D;}
	.st131{fill:#EAB978;}
	.st132{fill:#C091A7;}
	.st133{fill:#7E9DAD;}
	.st134{fill:#E5B1C8;}
	.st135{fill:#B9AEA3;}
	.st136{fill:#627F99;}
	.st137{fill:#E6A9AB;}
	.st138{fill:#913E41;}
	.st139{fill:#B46269;}
	.st140{fill:#C69C6C;}
	.st141{fill:#ED6D78;}
	.st142{fill:#C09047;}
	.st143{fill:#AE6C7B;}
	.st144{fill:#918FB2;}
	.st145{fill:#67816D;}
	.st146{fill:#B3B1A2;}
	.st147{fill:#A23A43;}
	.st148{fill:#6A907C;}
	.st149{fill:#B09294;}
	.st150{fill:#7B484D;}
	.st151{fill:#B78B5E;}
	.st152{fill:#DB7D82;}
	.st153{fill:#781611;}
	.st154{fill:#D38F8F;}
	.st155{fill:#965656;}
	.st156{fill:#9AA4B4;}
	.st157{fill:#754D24;}
	.st158{fill:#C8B7A7;}
	.st159{fill:#B4363B;}
	.st160{fill:#C77272;}
	.st161{fill:#91AF82;}
	.st162{fill:#C69462;}
	.st163{fill:#ED6C5B;}
	.st164{fill:#F3C186;}
	.st165{fill:#F3957D;}
	.st166{fill:#D1BBBC;}
</style>
<g>
	<g>
		<g>
			<path class="st2" d="M246.1,93.4c-0.4-1.7-1-3.4-1.3-5.1c-0.6-3.2-0.1-6.3,1.5-9.2c0.6-1.1,1.4-2.1,2.5-2.8
				c2-1.4,4.4-1.4,6.5-0.1c2.7,1.7,3.9,4.8,3.1,8c-0.4,1.7-1.3,3.1-2.3,4.5c-0.4,0.5-0.7,0.9-1.1,1.4c2.3,3.7,4.2,7.6,6,11.8
				c1.9-1,3.7-2,5.6-2.9c0-0.8,0-1.5,0-2.2c-0.1-6.9,1-13.6,3.1-20.1c0.7-2.2,1.6-4.4,2.9-6.3c1.3-1.9,2.8-3.4,4.9-4.4
				c1.5-0.7,3.1-1.2,4.8-0.9c3.3,0.4,5.8,2.8,6.6,6c0.6,2.4,0.3,4.7-0.4,7c-0.6,1.9-1.5,3.6-2.5,5.3c-2.2,3.6-4.9,6.9-8,9.8
				c-0.4,0.4-0.7,0.8-0.8,1.4c-0.5,3.2-0.6,6.5-0.6,9.8c0,2.6,0,5.3,0.2,7.9c0.2,3.6,0.5,7.2,1.4,10.6c0.1,0.4,0.2,0.8,0.4,1.2
				c0.2,0.5,0.5,0.6,0.9,0.4c0.3-0.2,0.6-0.5,0.8-0.8c0.3-0.6,0.5-1.1,0.7-1.8c1.3-4.3,2.3-8.6,3-13c0.5-3.4,1.3-6.6,2.9-9.7
				c0.9-1.9,2.2-3.5,3.9-4.8c2.1-1.6,4.5-2.2,7.2-1.7c3.2,0.7,6.6,4.1,6.3,8.3c-0.3,4-3.2,7.6-7.1,8.6c-1.2,0.3-2.5,0.4-3.9,0.7
				c-0.1,1-0.3,2-0.4,3.1c-0.1,1.8-0.3,3.6-0.2,5.4c0.1,3.1,0.6,6.1,1.8,9c0.3,0.9,0.8,1.7,1.4,2.4c0.9,1.2,2,1.4,3.2,0.5
				c0.9-0.6,1.7-1.4,2.4-2.2c1.5-1.8,2.7-3.8,3.9-5.8c1-1.6,1.3-3.2,1.4-4.9c0.3-5.4,2.1-10.3,5.2-14.7c1.6-2.3,3.5-4.3,5.9-5.8
				c1.3-0.8,2.7-1.5,4.3-1.7c4.1-0.7,7.4,1.4,8.5,5.4c0.6,2,0.5,4,0,6c-0.9,3.4-2.6,6.3-5.4,8.5c-1.7,1.4-3.7,2.3-6,2.7
				c-0.3,0-0.6,0.1-1,0.2c0,1-0.1,2,0,3c0.1,1.3,0.4,2.5,0.7,3.7c0.2,0.7,0.5,1.3,0.8,1.9c1.4,2.3,3.7,2.8,6,1.5
				c1.2-0.7,2.2-1.6,3-2.6c1.9-2.6,3.8-5.2,5.8-7.8c1.3-1.8,2.7-3.5,4-5.2c0.7-0.9,1.6-1.6,2.6-2.2c2.3-1.2,4.5-0.4,5.5,1.9
				c0.6,1.4,0.6,2.8,0.4,4.2c-0.3,2.8-1.1,5.5-2,8.2c-0.1,0.2-0.1,0.5-0.2,0.7c0,0.1,0,0.1,0,0.3c0.2-0.3,0.4-0.5,0.6-0.7
				c1.5-1.8,3-3.5,4.9-5c1.6-1.3,3.5-2.2,5.5-2.5c2.7-0.4,5,0.3,6.7,2.4c1.6,1.9,2.4,4.1,2.8,6.5c0.7,4.4,0.1,8.7-1.7,12.9
				c-2.4,5.7-6.2,10.2-11.4,13.6c-2.2,1.4-4.6,2.4-7.3,2.7c-1.8,0.2-3.5,0.2-5.1-0.7c-0.8-0.5-1.6-1.1-2.4-1.7
				c-0.1,0.2-0.2,0.5-0.3,0.8c-1.8,5.5-3.5,11-5.3,16.5c-0.6,1.8-1.4,3.6-2.2,5.4c-0.5,1.1-1.1,2-2.1,2.6c-0.5,0.3-1.1,0.6-1.7,0.8
				c-0.9,0.2-1.6-0.1-2.1-0.8c-1.2-1.5-1.4-3.3-1.1-5.1c0.4-2.3,0.8-4.5,1.4-6.7c2.4-9.1,4.7-18.2,7.6-27.1c1-3.3,2.3-6.5,3.4-9.7
				c1.1-3.4,2.2-6.9,3.3-10.3c0-0.1,0-0.3-0.1-0.5c-0.2,0.3-0.4,0.5-0.6,0.8c-2.5,3.6-5.1,7.1-8.1,10.3c-2,2.2-4.1,4.1-6.6,5.6
				c-1.2,0.7-2.4,1.3-3.7,1.6c-1.9,0.4-3.6,0.1-5.2-0.9c-1.3-0.8-2.3-1.8-3.3-3c-1.8-2.3-2.9-5-3.6-7.8c-0.1-0.3-0.2-0.7-0.3-1.2
				c-0.2,0.4-0.4,0.6-0.5,0.9c-1.4,2.6-2.9,5.1-4.7,7.4c-0.8,1-1.8,2-2.8,2.8c-2.5,1.9-5,1.8-7.5-0.1c-1.2-0.9-2.2-2.1-3-3.3
				c-2.3-3.3-3.7-6.9-4.3-10.8c0-0.3-0.1-0.5-0.2-0.8c0-0.1-0.1-0.2-0.1-0.3c-0.2,0.7-0.4,1.4-0.6,2.1c-0.5,1.4-1,2.8-1.6,4.2
				c-0.4,1-1,1.8-1.9,2.5c-1.3,1.2-2.9,1.3-4.4,0.3c-0.9-0.6-1.5-1.4-2.1-2.2c-1.4-2.1-2.4-4.3-3.2-6.7c-1.2-3.7-2-7.5-2.5-11.3
				c-0.3-2.3-0.5-4.6-0.8-6.9c-1.7,0.6-3.2,1.5-4.9,2.4c0.1,0.4,0.2,0.7,0.3,1.1c0.6,2.1,1.2,4.2,1.4,6.4c0.3,3.8-0.1,7.5-1.6,11.1
				c-1.1,2.4-2.6,4.5-4.9,5.9c-2.3,1.4-4.8,2.1-7.6,1.7c-1.4-0.2-2.7-0.3-4-0.8c-3.3-1.4-5.1-3.8-5.4-7.4c-0.1-1.6,0.3-3.1,0.9-4.6
				c1.1-2.5,2.7-4.5,4.7-6.4c2.1-1.9,4.4-3.6,6.8-5c0.3-0.2,0.5-0.3,0.8-0.5c-1.9-3.2-3.8-6.3-5.7-9.4c-0.1,0-0.1,0-0.2,0
				c-2.5,1.1-5.2,1.4-7.9,1.4c-3.6,0.1-7.1,0.1-10.7,0.2c-4.3,0.1-8.4,0.7-12.4,2.3c-4.7,1.8-8.9,4.6-12.2,8.5
				c-1.2,1.5-2.5,2.9-3.8,4.2c-1.4,1.4-3,2.5-4.9,3.2c-3.1,1-5.9,0.5-8.4-1.6c-1.3-1.1-2.3-2.4-3.2-3.8c-2.1-3.2-3.8-6.6-4.9-10.3
				c-0.1-0.2-0.2-0.5-0.4-0.8c-0.1,0.3-0.2,0.7-0.3,1c-0.8,3-1.6,5.9-2.6,8.9c-0.5,1.6-1.2,3.1-2,4.6c-0.6,1.3-1.5,2.5-2.6,3.4
				c-2.3,2-4.9,2.4-7.8,1.3c-1.2-0.5-2.3-1.2-3.3-2.1c-2.1-1.8-3.6-3.9-5-6.3c-0.3-0.5-0.5-1-0.9-1.6c-0.1,0.2-0.2,0.4-0.2,0.5
				c-0.3,2.1-0.6,4.1-0.9,6.2c-0.4,2.8-1.1,5.6-2.2,8.2c-0.4,1-0.9,1.9-1.6,2.7c-2.1,2.8-5.6,3.5-8.7,1.7c-1.9-1.1-3.4-2.8-4.7-4.6
				c-0.4-0.5-0.8-1.1-1.2-1.7c-0.1,0.3-0.2,0.6-0.3,0.8c-1.2,3.3-2.4,6.6-4,9.8c-0.6,1.1-1.2,2.2-1.9,3.2c-2.8,4.1-8.4,5.9-13.1,3.9
				c-2.9-1.2-5.3-3.1-7.3-5.4c-1.6-1.7-2.8-3.7-3.9-5.8c-0.1-0.3-0.3-0.5-0.4-0.8c-0.2,0.1-0.3,0.1-0.4,0.2c-4.3,2.3-8.3,4.9-12,8.1
				c-0.5,0.5-1,0.9-1.5,1.4c-2.4,2.3-3.4,5.1-3.5,8.4c-0.1,2,0.3,3.9,1,5.8c2.1,5.2,6,7.9,11.5,8.5c3.4,0.4,6.7-0.4,9.9-1.4
				c4.3-1.3,8.3-3.2,12.1-5.7c4.9-3.1,9.7-6.3,14.5-9.6c6.7-4.5,13.6-8.8,20.8-12.5c6.3-3.2,12.9-5.8,19.8-7.4
				c6-1.4,12.1-1.7,18.3-0.8c5.4,0.8,10.3,2.8,14.5,6.2c2.9,2.4,5,5.5,6.7,8.9c0.2,0.5,0.5,0.9,1,1.1c0.7,0.3,1,1,1.1,1.7
				c0.1,0.7,0.2,1.5,0.2,2.2c0,3.4,0,6.8,0,10.1c0,0.9-0.4,1.5-1.3,1.7c-0.5,0.2-1.1,0.2-1.7,0.2c-1.1,0-2.2,0-3.3-0.1
				c-0.9,0-1.6-0.5-1.7-1.5c-0.1-1.3-0.2-2.5-0.1-3.8c0.1-2.2,0.3-4.4,0.5-6.6c0.1-0.7,0.1-1.4,0.2-2.1c0.1-1,0.3-1.2,1.1-2.2
				c-0.6-1-1.2-2.1-1.9-3.1c-2.4-3.2-5.6-5.6-9.2-7.5c-2.8-1.4-5.8-2.1-8.9-2.3c-7.3-0.6-14.3,0.5-21.2,2.9
				c-7.5,2.5-14.5,6-21.3,9.9c-5.7,3.3-11.1,7-16.5,10.6c-4.1,2.8-8.3,5.5-12.7,7.9c-4.2,2.2-8.5,4.1-13.2,5.1
				c-2.5,0.5-5,0.9-7.6,0.7c-4.4-0.4-8.1-2.2-11.2-5.4c-3.1-3.3-4.7-7.2-4.8-11.8c0-2.1,0.5-4.1,1.5-6c1.1-2.2,2.6-4.1,4.4-5.7
				c2.5-2.3,5.2-4.3,8.1-6.1c1.6-1,3.2-1.9,4.8-2.9c0.2-0.1,0.4-0.3,0.6-0.4c-0.1-0.4-0.2-0.8-0.4-1.1c-1.2-3.5-2-7.2-1.9-10.9
				c0.1-3.8,1-7.4,3.2-10.6c1.4-2,3.1-3.6,5.4-4.5c1.8-0.7,3.6-0.9,5.5-0.4c7.6,1.8,10.9,9.1,8,15.9c-1,2.5-2.7,4.5-4.7,6.2
				c-1.2,1-2.6,2-3.9,2.9c-0.2,0.2-0.5,0.3-0.8,0.5c0.1,0.2,0.1,0.4,0.2,0.6c0.9,2.5,2.1,4.8,3.6,7c1.1,1.5,2.4,2.8,4.2,3.7
				c2,0.9,3.9,0.5,5.3-1.1c1.3-1.5,2.1-3.2,2.8-4.9c1.2-3.1,2.3-6.3,3.5-9.4c0.2-0.4,0-0.7-0.1-1c-0.9-2.1-1.7-4.3-2.2-6.5
				c-1-4.6-1.2-9.2,0.1-13.7c0.3-1.2,0.8-2.3,1.4-3.4c2.4-4.6,6.7-6.3,11.6-5.3c1.8,0.4,3.4,1.2,4.9,2.3c0.2,0.1,0.3,0.2,0.6,0.5
				c-0.1-0.5-0.1-0.7-0.1-1c-0.2-1.7-0.2-3.3,0.5-4.9c0.3-0.6,0.6-1.1,1-1.6c1.1-1.2,2.8-1.4,4.1-0.6c0.7,0.4,1.4,1.1,2,1.7
				c1.9,2.2,3.3,4.9,4.5,7.5c1.6,3.5,3.1,7.1,4.7,10.6c0.7,1.6,1.4,3.1,2.3,4.6c0.5,0.9,1.1,1.9,1.9,2.7c1.3,1.5,2.4,1.3,3.1-0.6
				c1.5-3.8,2.7-7.7,3.7-11.6c0.2-1,0.4-1.9,0.7-2.9c0.3-1,0.3-2.1,0.2-3.1c-0.3-2.4-0.5-4.9-0.7-7.3c-0.1-0.8-0.1-1.6-0.2-2.5
				c-1.3-0.2-2.6-0.2-3.9-0.2c-1.8,0.1-3.5,0.6-5.1,1.4c-0.3,0.2-0.7,0.3-1,0.4c-0.8,0.2-1.3-0.4-1.1-1.2c0.2-0.7,0.7-1.1,1.2-1.5
				c1.4-1,2.9-1.7,4.6-2c1.3-0.2,2.6-0.2,4-0.3c0.3,0,0.5,0,0.9,0c0-0.4,0-0.9,0-1.3c-0.1-1.6-0.3-3.1,0-4.7
				c0.2-1.2,0.5-2.4,0.9-3.6c0.3-1,0.9-1.8,1.6-2.5c1.7-1.7,3.8-1.7,5.6,0c0.8,0.8,1.4,1.7,1.8,2.8c1,2.3,1.6,4.7,2.2,7.2
				c0.3,1.2,0.5,2.5,0.8,3.8c0.5-0.1,1-0.1,1.5-0.2c1.5-0.2,2.9-0.7,4.2-1.6c0.7-0.5,1.6-0.9,2.3-1.4c0.3-0.2,0.6-0.3,0.9-0.3
				c0.4-0.1,0.8,0.1,1.1,0.5c0.2,0.4,0,0.8-0.3,1.1c-1,0.9-1.9,1.8-2.9,2.5c-1.5,1.1-3.2,1.7-5,2c-0.4,0.1-0.8,0.1-1.2,0.2
				c0.3,1.4,0.5,2.7,0.8,4c1.1,4.6,2.3,9.1,3.5,13.7c0.4,1.7,1.2,3.2,2.2,4.5c0.3,0.4,0.7,0.8,1,1.1c0.7,0.6,1.6,0.8,2.5,0.6
				c0.7-0.2,1.3-0.4,1.9-0.8c1.8-1.1,3.6-2.3,5.2-3.7c4.2-3.6,8.9-6.3,14.3-7.6c3.6-0.8,7.2-1,10.9-0.7c1.8,0.1,3.6,0.3,5.4,0.4
				c3,0.1,5.9-0.5,8.7-1.5C246,93.5,246,93.4,246.1,93.4z M358.2,129.1c0,0-0.1,0-0.1,0c0-0.2,0-0.4,0-0.6c-0.1-1.3-0.4-2.6-1.2-3.7
				c-0.8-1.2-2-1.7-3.4-1.6c-0.8,0.1-1.6,0.4-2.2,1c-1.1,1-2.2,1.9-3.1,3c-4.1,4.7-6.8,10.1-8.7,16c-0.4,1.4-0.3,2.5,0.3,3.7
				c0.1,0.2,0.3,0.5,0.4,0.7c1.3,2.2,4.3,3.6,7.2,1.9c1.2-0.7,2.3-1.6,3.2-2.7c1.2-1.5,2.4-3.1,3.3-4.9c1.5-2.9,2.7-5.9,3.6-9.1
				C357.8,131.6,357.9,130.3,358.2,129.1z M140.7,103.5c0,2.8,0.4,5.5,1,8.2c0.6,2.4,1.5,4.7,2.9,6.8c0.4,0.7,1,1.3,1.6,1.8
				c0.9,0.8,1.7,0.7,2.5-0.2c0.4-0.5,0.8-1.1,1.1-1.7c0.6-1.5,1.2-3.1,1.5-4.6c0.5-2.4,0.7-4.9,1.1-7.3c0.1-0.7,0-1.4-0.2-2.1
				c-0.5-2-0.9-3.9-1.4-5.9c-0.1-0.3-0.2-0.6-0.4-0.8c-0.9-0.9-1.8-1.9-2.9-2.8c-0.9-0.8-2-1.2-3.2-1.3c-0.9-0.1-1.6,0.3-2,1.1
				c-0.3,0.7-0.6,1.4-0.8,2.1C140.8,98.9,140.7,101.2,140.7,103.5z M254.4,108c-0.6,0.3-1.1,0.6-1.5,0.9c-2.2,1.5-4.2,3.3-5.9,5.5
				c-0.8,1-1.5,2.2-2.1,3.3c-0.8,1.5-1.2,3.1-1,4.8c0.1,1,0.3,1.8,1,2.6c0.9,0.9,1.9,1.6,3.1,1.9c0.8,0.2,1.6,0.3,2.4,0.1
				c3.6-0.8,6.6-4.4,6.9-8.3c0.1-1.5-0.1-2.9-0.5-4.4C256.3,112.2,255.5,110.1,254.4,108z M112.3,118.5c0.2-0.1,0.3-0.1,0.5-0.2
				c3.4-2.4,5.4-5.7,6.3-9.7c0.5-2.3-0.1-4.3-1.9-5.9c-1.5-1.4-3.5-0.6-4.1,0.9c-0.2,0.6-0.5,1.2-0.6,1.8c-0.8,3.6-0.8,7.2-0.5,10.9
				C112.1,117,112.2,117.7,112.3,118.5z M278.1,89.2c0.1,0,0.2,0,0.2,0.1c0.2-0.2,0.4-0.4,0.6-0.6c1.1-1.5,2.2-3,3.3-4.5
				c1.4-1.9,2.3-4.1,3-6.3c0.2-0.7,0.4-1.5,0.5-2.3c0-0.8-0.1-1.7-0.3-2.5c-0.2-0.7-0.8-0.9-1.4-0.5c-0.5,0.3-1,0.7-1.3,1.2
				c-0.5,0.8-1,1.6-1.3,2.5c-1.1,2.7-2,5.6-2.6,8.5C278.6,86.1,278.4,87.7,278.1,89.2z M319.1,114.3c0.3-0.1,0.5-0.2,0.7-0.3
				c2.9-1.3,5-3.4,6.4-6.2c0.5-0.9,0.7-1.9,0.8-2.9c0.1-0.6,0-1.2-0.3-1.7c-0.4-1-1.3-1.2-2.1-0.4c-0.6,0.5-1.2,1.1-1.6,1.8
				c-1.7,2.4-2.8,5-3.5,7.8C319.4,112.9,319.3,113.5,319.1,114.3z M293.6,107.4c1.1-0.2,2.1-0.5,3-0.9c1.7-0.9,2.9-2.2,3.4-4.1
				c0.1-0.6,0.2-1.2,0.1-1.8c-0.2-1.1-1.1-1.5-2.1-1c-0.4,0.2-0.7,0.5-1,0.8C295.4,102.4,294.4,104.7,293.6,107.4z M253.3,87.5
				c1.2-1,2.1-4.1,1.7-5.5c-0.1-0.7-0.3-1.3-0.7-1.8c-0.9-1.1-2.4-0.9-2.9,0.5c-0.2,0.5-0.3,1.2-0.2,1.8
				C251.5,84.2,252.4,85.8,253.3,87.5z"/>
			<path class="st2" d="M293.4,309.4c0.2-0.9,0.3-1.7,0.5-2.4c0.4-1.3,0.8-2.5,1.3-3.7c0.5-1.1,1.3-2.1,2.3-2.7
				c1.5-1,3.2-0.7,4.3,0.8c0.5,0.7,0.9,1.6,1.1,2.5c0.3,1.2,0.5,2.4,0.5,3.7c0.1,1.7,0,3.5-0.1,5.2c0,0.4,0,0.8,0,1.3
				c1.2,0.4,2.5,0.6,3.8,0.8c1.7,0.2,3.4,0.1,5.1-0.1c0.8-0.1,1.6-0.1,2.3-0.1c0.6,0,1.1,0.3,1.3,0.8c0.2,0.6,0,1.1-0.4,1.6
				c-0.5,0.6-1.2,0.9-1.9,1.2c-1.9,0.6-3.8,0.7-5.7,0.5c-1.3-0.2-2.7-0.5-4-0.7c-0.2,0-0.4-0.1-0.6-0.1c0,1-0.1,2-0.1,3
				c-0.1,5.2-0.2,10.3-0.2,15.5c0,3.4,0.2,6.9,1,10.2c0.2,0.6,0.3,1.3,0.6,1.9c0.2,0.7,0.6,1.4,1.3,1.9c0.8,0.6,1.3,0.7,2,0
				c0.5-0.5,1-1,1.4-1.6c0.7-1,1.3-2.1,1.9-3.2c1.4-2.6,2.5-5.4,3.4-8.2c1.2-3.6,2.5-7.1,3.7-10.7c0.2-0.5,0.4-1.1,0.7-1.6
				c0.1-0.3,0.3-0.5,0.5-0.7c0.4-0.5,0.9-0.6,1.4-0.4c0.5,0.2,0.7,0.7,0.7,1.3c0,0.2-0.1,0.5-0.1,0.7c-1.3,3.7-2.6,7.5-3.9,11.2
				c-1.2,3.2-2.5,6.4-4.1,9.5c-0.9,1.8-2,3.6-3.4,5.1c-0.5,0.6-1.1,1.2-1.8,1.7c-2,1.5-4.1,1.7-6.3,0.6c-1.2-0.6-2.1-1.4-3-2.4
				c-1.7-1.9-2.8-4.1-3.7-6.4c-1.2-3.1-1.8-6.4-2.2-9.7c-0.2-1.8-0.3-3.7-0.5-5.6c-0.2,0.3-0.3,0.4-0.4,0.6
				c-1.4,2.6-2.8,5.2-4.2,7.8c-0.7,1.3-1.6,2.6-2.5,3.8c-0.8,1.2-1.9,2.1-3.1,2.9c-2.5,1.6-5,1.4-7.3-0.5c-1.5-1.2-2.6-2.8-3.4-4.5
				c-1.2-2.5-1.9-5.1-2.3-7.8c-0.5-2.9-0.6-5.8-0.8-8.7c-0.1-2.5-0.3-5.1-0.4-7.6c0-0.4-0.1-0.7-0.3-1.1c-0.1,0.3-0.3,0.6-0.4,0.9
				c-1.7,3.7-3.3,7.5-5,11.2c-1.4,2.9-3,5.7-5.2,8.1c-0.8,0.8-1.7,1.6-2.7,2.3c-2.1,1.3-4.1,1.2-6.1-0.3c-1.8-1.4-3.1-3.2-4.2-5.1
				c-1.5-2.8-2.3-5.8-2.8-8.9c-0.2-1.4-0.3-2.7-0.5-4.3c-0.3,0.4-0.4,0.7-0.6,0.9c-2.2,3.7-4.4,7.4-6.6,11.1
				c-0.9,1.4-1.9,2.8-2.9,4.2c-0.6,0.8-1.4,1.5-2.2,2.1c-1.6,1.1-3.2,1.1-4.8,0.1c-1.1-0.7-1.9-1.6-2.7-2.6c-1.8-2.4-3.1-5.1-4.1-8
				c-0.9-2.8-1.5-5.7-1.8-8.7c0-0.2-0.1-0.5-0.1-0.7c0-0.1-0.1-0.2-0.1-0.3c-1.7,0.4-3.4,0.8-5.2,1.2c-0.5,0.1-0.5,0.4-0.7,0.7
				c-0.5,1.2-0.9,2.5-1.5,3.7c-1.4,2.9-3.4,5.4-6,7.2c-1.6,1.2-3.4,1.8-5.5,1.7c-2.2-0.1-3.9-1.3-4.5-3.3c-0.4-1.3-0.2-2.6,0.4-3.8
				c0.6-1.3,1.6-2.4,2.8-3.2c1.5-1.1,3.1-1.8,4.8-2.3c0.8-0.3,1.6-0.5,2.4-0.7c0.5-0.1,0.7-0.4,0.9-0.8c0.5-1.1,0.6-2.3,0.7-3.5
				c0.2-3.5,0-7.1-1-10.5c-0.6-2.2-1.6-4.2-3.3-5.9c-0.6-0.6-1.2-1-2-1.3c-1.4-0.5-2.7-0.1-3.7,1.1c-0.8,1-1.3,2.2-1.7,3.4
				c-1,3.3-1.8,6.7-2.2,10.1c-0.8,7.2-1.2,14.4-0.9,21.6c0.2,3.8,0.5,7.6,0.8,11.5c0.2,3.1,0.5,6.1,0.8,9.2c0.2,1.9,0.4,3.7,0.6,5.6
				c0.2,2,0.4,3.9,0.1,5.9c-0.1,0.5-0.2,1-0.4,1.5c-0.9,1.8-3.3,2.1-4.6,0.5c-0.5-0.6-0.8-1.3-1.2-2c-1.1-2.2-1.6-4.7-2.3-7
				c-1-3.5-1.5-7.1-2-10.7c-0.4-3-0.8-6-1.2-9.1c-0.3-2.4-0.5-4.9-0.6-7.3c-0.3-3.7-0.6-7.3-0.9-11c-0.1-1.3-0.2-2.6-0.3-4
				c0-0.3-0.1-0.5-0.2-0.8c-0.1,0.3-0.2,0.5-0.3,0.8c-1.4,4.7-2.9,9.4-4.9,13.9c-0.9,2.1-1.9,4.1-3.2,5.9c-0.7,1-1.5,2-2.4,2.8
				c-2.6,2.5-6.1,2.8-9.1,0.9c-1.5-1-2.7-2.3-3.7-3.8c-0.2-0.3-0.4-0.5-0.7-1c-0.1,1.1-0.3,2-0.4,2.9c-0.5,3.5-1,6.9-2.2,10.2
				c-0.3,0.9-0.8,1.7-1.2,2.6c0,0.1-0.1,0.2-0.1,0.2c-1.8,2.8-4.5,2.9-6.7,0.4c-1.2-1.3-2-2.9-2.6-4.5c-1-2.5-1.5-5.2-1.8-7.8
				c-0.6-5-1-10-1.3-15.1c-0.1-1.9-0.4-3.7-0.7-5.6c-0.1-0.5-0.3-1-0.5-1.5c-0.3-0.7-0.9-1.1-1.7-1c-0.7,0.1-1.4,0.1-1.9,0.4
				c-1.3,0.6-2.6,1.2-3.8,2c-2.4,1.5-4.7,3.1-7.1,4.7c0,1,0,2.2,0,3.3c-0.1,3.5-1.1,6.7-2.7,9.8c-0.2,0.4-0.4,0.7-0.7,1
				c-0.4,0.5-0.9,0.6-1.4,0.3c-0.4-0.3-0.5-0.8-0.2-1.4c0.5-1.2,1.1-2.3,1.5-3.5c1-2.5,1.3-5.1,1.3-7.7c0-0.1,0-0.2,0-0.4
				c0-0.1,0-0.1-0.1-0.3c-0.3,0.1-0.6,0.2-0.9,0.3c-1.6,0.7-3.3,1.3-5,1.4c-2.4,0.3-4.6-0.2-6.6-1.8c-2.3-1.8-3-4.3-2-7
				c1-2.8,3-4.7,5.8-5.7c2.3-0.8,4.4-0.3,6.3,1.1c1.9,1.4,3.1,3.4,3.8,5.7c0.1,0.3,0.2,0.7,0.3,1.1c0.4-0.2,0.7-0.4,1-0.6
				c1.4-1,2.8-1.9,4.1-2.9c1.7-1.2,3.5-2.4,5.4-3.3c1.5-0.7,3.2-1.2,4.9-1c3.1,0.3,5.4,2,7.3,4.4c1.1,1.4,1.7,3,2.1,4.8
				c0.5,2.1,0.8,4.3,0.9,6.4c0.2,3.1,0.2,6.3,0.4,9.4c0.2,2.3,0.7,4.5,1.1,6.8c0.1,0.6,0.4,1.3,0.9,1.8c0.5-0.4,0.6-1,0.7-1.5
				c0.4-2.1,0.8-4.2,1.2-6.3c0.3-1.7,0.4-3.4,0.7-5.1c0.1-0.8,0.1-1.7-0.2-2.5c-1.1-4-1.3-8-0.1-12.1c0.6-2.1,1.6-4,3-5.7
				c1.3-1.5,2.8-2.6,4.7-3c2.2-0.5,4.2,0.1,5.7,1.8c2.3,2.6,2.8,5.7,1.7,9c-0.8,2.4-2.4,4.3-4.4,5.9c-0.3,0.2-0.6,0.4-0.9,0.7
				c0.1,0.2,0.1,0.4,0.2,0.6c0.7,1.6,1.4,3.2,2.2,4.7c0.4,0.7,0.9,1.3,1.5,1.8c1,0.8,1.9,0.7,2.7-0.4c0.3-0.4,0.5-0.9,0.8-1.3
				c3.1-6.1,5.6-12.4,7.6-19c0.8-2.5,1.5-5,2.4-7.5c0.3-0.8,0.6-1.5,1.1-2.2c0.9-1.4,2.4-1.5,3.5-0.2c0.5,0.6,0.9,1.3,1.2,2
				c0.7,1.8,1,3.7,1.3,5.5c0.3,2.2,0.6,4.4,0.9,6.5c0,0.1,0.1,0.2,0.2,0.3c0-0.2,0.1-0.4,0.1-0.5c0.1-4.9,0.5-9.8,1.3-14.7
				c0.5-3.1,1.3-6.1,2.5-9c0.9-2.1,2.2-4,3.8-5.7c0.9-0.8,1.8-1.6,3-2c1.8-0.8,3.6-0.8,5.3,0c1.5,0.7,2.7,1.7,3.7,3
				c1.6,2.1,2.6,4.6,3.4,7.1c1.2,3.9,1.6,8,1.5,12.1c-0.1,3.2-0.4,6.3-1.1,9.6c1.7-0.2,3.3-0.6,5.1-1c0-0.3,0-0.7,0-1
				c-0.1-3,0.1-6,0.7-9c0.4-1.9,0.9-3.7,1.8-5.4c1-1.9,2.4-3.4,4.2-4.4c4.2-2.4,8.8-0.3,10,4.4c0.5,2.1,0.3,4.2-0.6,6.2
				c-1.3,2.7-3.2,4.9-5.7,6.6c-0.2,0.1-0.4,0.3-0.6,0.4c-0.2,0.1-0.4,0.3-0.7,0.5c0.2,1.5,0.4,3,0.7,4.4c0.6,3.3,1.4,6.6,2.6,9.7
				c0.3,0.8,0.7,1.6,1.1,2.3c0.4,0.7,0.8,0.8,1.5,0.3c0.4-0.2,0.7-0.5,1-0.9c1.2-1.5,2.5-3,3.6-4.6c2.3-3.4,4.4-6.9,6.6-10.4
				c0.2-0.3,0.3-0.7,0.3-1.1c0.3-2.4,0.8-4.8,1.8-7c0.3-0.6,0.6-1.2,0.9-1.8c2.8-4.8,7.8-5.2,11.5-3.6c2.2,1,3.8,2.5,4.9,4.7
				c0.5,0.9,0.8,1.8,0.7,2.8c0,0.5-0.2,1-0.4,1.4c-0.2,0.4-0.7,0.3-0.9-0.1c-0.1-0.2-0.1-0.4-0.2-0.6c-0.3-0.9-0.8-1.6-1.6-2.2
				c-1-0.8-2.2-0.7-3,0.3c-0.4,0.6-0.8,1.2-1,1.9c-1,2.6-1.5,5.3-1.8,8.1c-0.3,2.7-0.4,5.5,0,8.2c0.2,1.3,0.4,2.6,0.9,3.9
				c0.8,1.9,2.2,2.3,3.8,0.9c0.4-0.4,0.8-0.8,1.1-1.3c1.3-1.7,2.2-3.6,3-5.6c1.3-3.2,2.5-6.5,3.8-9.7c0.6-1.4,1.2-2.8,1.8-4.1
				c0.3-0.5,0.6-1.1,0.9-1.6c1.8-2.7,6.2-3.6,8.6,0.3c0.7,1.1,1,2.4,1.3,3.6c0.6,2.6,0.7,5.2,0.7,7.8c0,1.8,0,3.6,0,5.4
				c0,3.7,0.1,7.3,0.7,10.9c0.2,1.5,0.7,2.9,1.1,4.4c0.1,0.5,0.5,1,0.9,1.3c0.5,0.5,0.9,0.5,1.3,0c0.5-0.4,0.9-0.9,1.2-1.4
				c2.8-4.5,5.5-8.9,8.3-13.4c0.6-0.9,0.8-1.9,0.8-3c0.1-3,0.4-6,0.6-8.9c0-0.2,0-0.5,0.1-0.7c0.1-0.5-0.1-0.8-0.5-1
				c-6.2-4.2-11.9-8.9-17.5-13.8c-4.6-4-9.4-7.7-14.7-10.8c-5.4-3.2-11.1-5.4-17.3-6.5c-4.6-0.9-9.3-1-14-0.4
				c-0.9,0.1-1.9,0.2-2.8,0.2c-0.5,0-1.1-0.1-1.6-0.4c-1.2-0.6-1.4-2-0.5-2.9c0.4-0.4,0.8-0.6,1.3-0.8c1.5-0.7,3.1-1.1,4.7-1.3
				c5.9-0.7,11.8-0.6,17.5,1.3c4.7,1.5,9.2,3.7,13.2,6.6c7.8,5.6,15.3,11.5,22.7,17.6c2.8,2.4,5.8,4.6,8.6,6.9
				C292.8,308.9,293.1,309.1,293.4,309.4z M223.6,310.5c0.1,0,0.2,0,0.2,0c2.9-2.1,4.7-4.8,5.2-8.4c0.2-1.4-0.2-2.6-1.2-3.5
				c-1.1-1.1-2.2-1-3,0c-0.4,0.5-0.7,1.1-0.9,1.6c-0.2,0.6-0.3,1.3-0.4,1.9c-0.4,2.6-0.1,5.3,0,8
				C223.5,310.2,223.6,310.4,223.6,310.5z M160,323c0.2-0.1,0.4-0.2,0.5-0.3c2.4-1.8,3.4-4.3,3.3-7.3c0-0.8-0.2-1.5-0.7-2.1
				c-0.8-1.1-1.7-1.1-2.5,0c-0.5,0.7-0.8,1.4-0.9,2.2c-0.4,1.9-0.4,3.8,0,5.8C159.8,321.8,159.9,322.4,160,323z M118.3,319.6
				c-0.3-1.8-0.8-3.4-2.2-4.6c-0.5-0.4-1-0.7-1.5-0.9c-1-0.4-2,0-2.5,0.9c-0.6,1-0.8,2-0.5,3.1c0.3,1.1,0.9,1.8,2,2.1
				c0.9,0.3,1.7,0.3,2.6,0.1C116.8,320.1,117.5,319.8,118.3,319.6z M201.3,320.4c-1.7,0.6-3.2,1.3-4.5,2.2c-0.4,0.3-0.8,0.7-1.1,1
				c-0.4,0.5-0.6,1-0.6,1.7c0,1.2,0.6,1.5,1.6,0.9c0.3-0.2,0.6-0.4,0.9-0.6C199.3,324.3,200.4,322.5,201.3,320.4z"/>
		</g>
		<g>
			<path class="st2" d="M107.7,270.1c0-8.4,0.9-16.2,2.1-23.9c1.6-10,4.1-19.8,6.9-29.6c2.1-7.2,4-14.5,6.6-21.5
				c1.5-4.2,3-8.4,4.9-12.5c1.6-3.5,3.5-6.8,5.7-10c0.4-0.6,0.8-1.1,1.3-1.6c0.5-0.5,1.1-1,1.7-1.3c1.8-0.9,2.9-2.3,3.5-4.2
				c0.3-0.8,0.5-1.7,0.7-2.5c0.4-1.6,1.3-2.8,2.7-3.6c0.9-0.5,1.7-1,2.6-1.4c6.2-2.7,12.4-5.1,18.9-7c3.3-1,6.6-1.6,10-1.8
				c4-0.2,7.4,1,9.8,4.3c1.1,1.4,2.5,2,4.2,2.1c2.4,0.2,4.9,0.4,7.3,0.4c7,0.2,14.1,0.4,21.1,0.5c6.1,0.1,12.3,0.2,18.4,0.1
				c2.4,0,4.8-0.3,7.2-0.5c1.1-0.1,2.2-0.5,3.1-1.2c1.2-0.9,2.6-1.9,3.7-2.9c2.4-2.3,5.2-3.1,8.4-2.9c2.4,0.2,4.7,0.6,7,1.3
				c7.4,2.3,14.6,4.9,21.7,7.9c0.9,0.4,1.8,0.9,2.7,1.4c2.5,1.4,3.7,3.5,4,6.3c0.1,0.4,0.1,0.9,0.2,1.3c0.1,0.9,0.5,1.4,1.4,1.7
				c0.5,0.2,1,0.4,1.5,0.5c2.1,0.8,3.6,2.1,4.4,4.2c0.3,0.8,0.6,1.6,0.9,2.4c0.7,1.9,1.5,3.9,2.2,5.8c1.7,4.5,3.5,8.9,5.1,13.4
				c1.9,5.1,3.6,10.2,5.4,15.3c1.5,4.3,2.6,8.8,3.8,13.2c2.1,7.9,3.9,15.9,5.5,24c1.1,5.3,1.9,10.6,2.6,15.9
				c0.4,3.2,0.4,6.4,0.2,9.6c-0.1,1.4-0.2,2.9-0.3,4.3c-0.2,1.9-0.8,3.8-1.6,5.5c-1,2.1-2.1,4.2-3.4,6.2c-1.2,1.9-2.6,3.5-4.4,4.9
				c-3.6,2.8-7.8,3.4-12.2,2.7c-2.1-0.4-4.1-1.1-6-2.1c-3.2-1.7-6.1-3.7-8.8-6.2c-2.8-2.6-5.3-5.4-7.8-8.2
				c-3.3-3.7-6.8-7.1-10.5-10.3c-1-0.8-2-1.6-3-2.3c-3-2.3-6.4-3.7-10.1-4.3c-3.2-0.5-6.4-1-9.6-1.1c-4.7-0.2-9.3-0.5-14-0.7
				c-7.5-0.4-15.1-0.3-22.6-0.3c-6.9,0-13.8,0-20.7,0.1c-5.3,0.1-10.6,0.6-15.8,1.9c-4.6,1.1-8.6,3.2-12.1,6.4
				c-1.6,1.5-3.2,3.1-4.7,4.6c-4.2,4.4-8.3,8.8-12.5,13.1c-2.2,2.2-4.5,4.3-7,6.2c-2.9,2.1-5.9,3.8-9.3,4.9
				c-7,2.1-14.4-0.9-18.4-6.8c-2.1-3.1-3.3-6.5-4-10.1C107.9,277.7,107.6,273.6,107.7,270.1z M242.5,196.6c-0.2-0.5-0.4-0.8-0.5-1.1
				c-3-6.8-6.4-13.4-10.5-19.6c-0.9-1.3-1.9-2.5-2.8-3.7c-0.6-0.8-1.5-1.4-2.4-1.8c-1.5-0.6-3.1-0.1-3.8,1.4
				c-0.4,0.8-0.7,1.7-0.9,2.7c-0.3,2.5-0.6,5.1-0.7,7.7c-0.2,7.3-0.2,14.7-0.2,22c0,6.1,0.1,12.2,0.2,18.3c0,10.3,0,20.6,0.4,30.9
				c0,0.7,0.1,1.5,0.2,2.2c0.1,0.5,0.3,0.9,0.5,1.3c0.6,1,1.9,1.2,2.8,0.5c0.4-0.4,0.8-0.9,1-1.4c0.2-0.5,0.3-1,0.4-1.6
				c0.4-3.3,0.6-6.6,0.5-9.8c-0.1-2.6-0.2-5.2-0.2-7.9c-0.1-4.4-0.1-8.8-0.2-13.1c-0.1-3.3-0.2-6.5-0.2-9.8c0-4.6,0.1-9.3,0.2-13.9
				c0.1-4.1,0.3-8.2,0.4-12.3c0-0.2,0-0.4,0.1-0.6c0.6,0.8,1.1,1.7,1.6,2.6c1.1,2.2,2.1,4.4,3.2,6.6c2.1,4.2,4.4,8.2,6.9,12.1
				c0.4,0.6,0.9,1.2,1.4,1.8c0.5,0.6,1.1,0.7,1.8,0.3c0.4-0.2,0.8-0.6,1.1-0.9c0.3-0.4,0.6-0.9,0.7-1.4c1-2.7,2-5.4,2.9-8.2
				c1.4-4.2,2.8-8.5,4.5-12.6c0.1-0.3,0.3-0.6,0.4-0.9c0.2,1.2,0.2,2.4,0.1,3.6c-0.1,3.6-0.3,7.1-0.4,10.7c-0.1,1.7-0.1,3.4-0.1,5.2
				c0,5.3,0,10.6,0.1,15.9c0.1,4.2,0.5,8.4,0.6,12.6c0.2,3.9,0.3,7.7,0.8,11.5c0.3,2.8,0.7,5.6,1.1,8.4c0.2,1.2,0.6,2.4,1.3,3.4
				c0.6,0.8,1.3,1.5,2.5,1.5c0.2,0,0.5,0.1,0.7,0.2c1.2,0.2,2.2,0,3-0.9c0.6-0.8,1.2-1.6,1.3-2.6c0.2-1.3,0.5-2.7,0.5-4
				c0.1-4.2,0.1-8.3,0-12.5c-0.1-3.1-0.3-6.2-0.4-9.3c-0.2-6.2-0.3-12.3-0.6-18.5c-0.2-4.6-0.6-9.3-0.8-13.9
				c-0.2-3.3-0.4-6.7-0.5-10c-0.1-4.3-0.2-8.6-0.6-12.9c-0.2-1.4-0.4-2.9-0.7-4.3c-0.2-0.8-0.6-1.5-1-2.2c-0.8-1.1-2.1-1.3-3.2-0.6
				c-0.6,0.4-1.1,0.8-1.5,1.4c-0.7,1.1-1.5,2.2-2,3.4c-1.2,2.6-2.3,5.2-3.3,7.8c-1.8,5.2-3.5,10.4-5.3,15.6
				C242.8,195.8,242.6,196.1,242.5,196.6z M159.3,230.5c0,0.7,0,1.2,0,1.8c-0.2,1.9-0.3,3.7-0.5,5.6c-0.3,3.2-0.9,6.3-1.8,9.4
				c-0.5,1.8-1.2,3.5-2.2,5.2c-0.9,1.6-2.2,3-3.7,4c-0.7,0.5-1.5,0.8-2.3,0.9c-2.1,0-3.8-0.6-5.1-2.3c-0.9-1.2-1.5-2.5-1.9-4
				c-0.6-2.1-1-4.3-1.2-6.5c-0.3-2.5-0.4-5.1-0.2-7.6c0.4-4.5,0.9-9,1.6-13.5c0.8-6.1,2.2-12.2,4-18.1c1.7-5.3,3.6-10.5,6.1-15.5
				c1.2-2.3,2.7-4.5,4.3-6.6c0.6-0.7,1.2-1.4,1.9-1.9c1.3-1.1,4.1-1.2,5.4,0.5c0.9,1.1,1.5,2.3,2,3.5c0.2,0.6,0.5,1.2,0.7,1.8
				c0.3,0.6,0.7,1,1.2,1.3c0.8,0.4,1.6,0.2,2-0.7c0.4-0.8,0.3-1.6,0.1-2.4c-0.7-2.9-2.3-5.3-4.3-7.4c-0.6-0.6-1.2-1.1-1.9-1.5
				c-4.4-2.6-8.9-3-13.6-0.8c-3.4,1.6-6.2,4-8.3,7.1c-2.2,3.1-4.1,6.4-5.8,9.8c-2.7,5.4-4.6,11.1-6.3,16.8c-1.9,6.8-3,13.7-3.3,20.8
				c-0.1,3.4-0.1,6.9,0.3,10.3c0.4,4.1,1.3,8.2,2.8,12c0.8,2.1,1.9,4,3.4,5.7c2.5,2.8,5.5,5,9.2,6.1c2.1,0.6,4.3,0.7,6.5,0.5
				c3.1-0.4,5.9-1.4,8.3-3.5c2.7-2.3,4.3-5.3,5.5-8.6c1.1-3,1.9-6.2,2.5-9.3c0.7-4,1.3-8.1,1.8-12.2c0.2-1.2,0.2-2.4,0-3.5
				c-0.2-2.2-1.6-3.5-3.6-3.7c-2.7-0.2-5.4-0.4-8.1-0.1c-1.6,0.2-3.1,0.5-4.5,1.2c-0.6,0.3-1.3,0.7-1.8,1.2c-1.1,1.2-1,2.8,0.3,3.9
				c0.6,0.6,1.4,0.8,2.3,0.8c1.4,0,2.9,0,4.3-0.1C156.7,230.9,158,230.7,159.3,230.5z M202.2,236.2c0,0.3,0.1,0.5,0.1,0.7
				c0.4,2.8,0.7,5.6,1.1,8.4c0.3,2.2,0.8,4.5,1.8,6.5c0.4,0.8,0.8,1.5,1.3,2.1c1.3,1.4,3,1.7,4.8,1c1.1-0.4,1.7-1.1,1.9-2.2
				c0.1-0.4,0.1-0.8,0.1-1.3c-0.1-1.5-0.1-3.1-0.2-4.6c-0.2-2.6-0.4-5.2-0.6-7.8c-0.3-3-0.5-5.9-0.8-8.9c-0.5-4.3-1-8.5-1.5-12.8
				c-0.8-7.1-1.6-14.1-2.9-21.1c-0.7-4-1.5-7.9-2.5-11.9c-0.9-3.3-2.1-6.5-3.7-9.5c-0.9-1.7-2.1-3.1-3.7-4.2
				c-2.2-1.4-4.6-1.4-6.7,0.2c-1.2,0.9-2.1,2-2.7,3.2c-0.7,1.4-1.4,2.8-1.9,4.3c-2.5,7.1-3.9,14.4-5.1,21.8
				c-0.6,3.8-1.1,7.7-1.5,11.6c-0.4,3.7-0.7,7.3-1,11c-0.2,2.3-0.3,4.7-0.4,7c-0.2,3.9-0.4,7.9-0.7,11.8c0,0.7,0,1.5-0.1,2.2
				c-0.3,3.5-0.5,7-0.4,10.6c0,0.9,0.3,1.7,0.5,2.6c0.2,0.7,0.7,1.2,1.4,1.3c0.8,0.1,1.4-0.2,1.9-0.8c0.4-0.5,0.6-1.1,0.9-1.7
				c0.6-1.4,0.7-3,0.9-4.5c0.3-4.1,0.5-8.2,0.8-12.4c0.1-0.9,0.1-1.7,0.2-2.6C189.6,236.3,195.9,236.2,202.2,236.2z M283.9,235.6
				c0-0.7-0.1-1.2-0.1-1.8c-0.3-3.6-0.6-7.3-0.8-10.9c-0.2-3.3-0.5-6.7-0.6-10c-0.3-5.8-0.7-11.6-0.8-17.4c-0.1-6.5,0-13,0.1-19.5
				c0-0.1,0-0.2,0.1-0.4c0.4,0.1,0.7,0.2,1,0.3c2.8,0.9,5.5,1.8,8.3,2.6c0.8,0.2,1.6,0.4,2.4,0.6c0.3,0.1,0.7,0,1.1-0.1
				c1-0.3,1.4-1.1,0.8-2c-0.4-0.7-1-1.1-1.6-1.4c-1.1-0.5-2.2-1.1-3.3-1.6c-3.9-1.7-8.1-2.6-12.3-3.2c-2.6-0.4-4.7,0.5-6.1,2.7
				c-0.6,0.9-1,1.8-1.4,2.8c-0.8,2.1-1.2,4.4-1.6,6.7c-1,6.7-1.1,13.4-0.9,20.1c0.2,5.2,0.4,10.5,0.6,15.7c0.1,3.2,0.3,6.5,0.4,9.7
				c0.3,4.5,0.6,9.1,0.9,13.6c0.2,2.4,0.3,4.8,0.5,7.1c0.3,2.2,0.7,4.5,1.6,6.6c0.7,1.7,1.9,2.8,3.7,3.3c3.2,0.9,6.5,1.5,9.8,1.9
				c3.4,0.5,6.8,0.8,10.2,1.2c2.4,0.2,4.8,0.4,7.2,0.6c0.4,0,0.9,0,1.3-0.1c0.7-0.2,1.4-0.6,1.5-1.4c0.1-0.9-0.3-1.5-1-1.9
				c-0.5-0.3-1-0.5-1.6-0.7c-1.6-0.4-3.2-0.8-4.9-1.1c-3.6-0.6-7.3-1.1-10.9-1.7c-0.9-0.1-1.8-0.3-2.8-0.4
				c-0.2-4.9-0.6-9.7-0.8-14.5c1.3-0.1,2.5-0.2,3.7-0.2c2.4,0,4.8,0,7.2,0c1.9,0,3.8,0,5.7-0.2c0.8-0.1,1.6-0.3,2.3-0.6
				c1.5-0.7,1.5-2.6,0-3.4c-0.4-0.2-0.9-0.5-1.4-0.5c-2.2-0.2-4.3-0.5-6.5-0.5c-3.4-0.1-6.9,0-10.3,0
				C284.5,235.6,284.2,235.6,283.9,235.6z"/>
			<path class="st2" d="M190.8,178.3c0.2,0.5,0.3,0.8,0.4,1.2c1.5,4.3,2.4,8.8,3.3,13.3c1,5.3,2,10.6,3,15.9c1,5.7,2,11.3,3,17
				c0.3,1.6,0.6,3.3,0.9,5c-0.4,0-0.7,0.1-1.1,0.1c-2.1,0-4.2,0-6.2,0.1c-2.7,0-5.3,0.1-8,0.2c-0.8,0-1.5,0.1-2.4,0.2
				c0-0.8-0.1-1.5,0-2.2c0.3-3.6,0.7-7.1,1.1-10.7c0.5-4.6,1-9.2,1.6-13.8c0.5-4.3,1-8.6,1.7-12.8c0.6-4.1,1.2-8.2,2.4-12.2
				C190.5,179.2,190.6,178.8,190.8,178.3z"/>
		</g>
	</g>
	<g>
		<g>
			<path class="st18" d="M91.1,290.6c-0.9,0-1.7,0-2.4,0c-1.3,0-2.7,0.1-4,0.1c-0.6,0-1.1-0.1-1.7-0.2c-0.9-0.2-1.4-0.6-1.4-1.3
				c-0.1-0.8,0.4-1.3,1-1.6c0.8-0.4,1.6-0.7,2.4-0.9c3.9-1,7.8-1.9,11.7-2.9c1-0.2,2.1-0.4,3.1-0.6c1.5-0.2,2.6,0.5,2.8,2
				c0.1,0.8,0.1,1.6-0.1,2.3c-0.8,3-1.6,6-2.5,9.1c-0.5,1.9-1.2,3.7-1.7,5.6c0,0.1-0.1,0.2-0.1,0.3c-0.3,0.7-0.9,1.2-1.6,1.1
				c-0.7,0-1.3-0.5-1.5-1.3c-0.1-0.5-0.2-0.9-0.2-1.4c-0.1-2-0.2-4-0.2-6c0-0.3,0-0.6-0.1-1.2c-0.3,0.4-0.5,0.6-0.6,0.8
				c-2.9,4.1-4.8,8.6-6.2,13.4c-2.6,9-2.6,18.1,0.1,27.1c1.1,3.8,2.8,7.4,5.1,10.7c0.9,1.3,1.9,2.5,3.1,3.6c0.2,0.2,0.4,0.3,0.5,0.5
				c0.7,0.8,0.8,1.7,0.4,2.6c-0.2,0.4-0.4,0.7-0.6,1c-1.1,1.4-2.5,2.5-4.1,3.2c-1,0.5-2.1,0.4-3.1-0.1c-0.8-0.4-1.5-1.1-2.1-1.8
				c-1.4-1.8-2.4-3.7-3.3-5.8c-2.1-4.8-3.4-9.8-4.1-15c-0.6-4.3-0.7-8.7-0.5-13.1c0.6-10.1,3.5-19.4,9.6-27.5
				C89.4,292.6,90.2,291.7,91.1,290.6z"/>
			<path class="st18" d="M340,350c0.9,0,1.7,0,2.4,0c1.3,0,2.7-0.1,4-0.1c0.6,0,1.1,0.1,1.7,0.2c0.9,0.2,1.4,0.6,1.4,1.3
				c0.1,0.8-0.4,1.3-1,1.6c-0.8,0.4-1.6,0.7-2.4,0.9c-3.9,1-7.8,1.9-11.7,2.9c-1,0.2-2.1,0.4-3.1,0.6c-1.5,0.2-2.6-0.5-2.8-2
				c-0.1-0.8-0.1-1.6,0.1-2.3c0.8-3,1.6-6,2.5-9.1c0.5-1.9,1.2-3.7,1.7-5.6c0-0.1,0.1-0.2,0.1-0.3c0.3-0.7,0.9-1.2,1.6-1.1
				c0.7,0,1.3,0.5,1.5,1.3c0.1,0.5,0.2,0.9,0.2,1.4c0.1,2,0.2,4,0.2,6c0,0.3,0,0.6,0.1,1.2c0.3-0.4,0.5-0.6,0.6-0.8
				c2.9-4.1,4.8-8.6,6.2-13.4c2.6-9,2.6-18.1-0.1-27.1c-1.1-3.8-2.8-7.4-5.1-10.7c-0.9-1.3-1.9-2.5-3.1-3.6
				c-0.2-0.2-0.4-0.3-0.5-0.5c-0.7-0.8-0.8-1.7-0.4-2.6c0.2-0.4,0.4-0.7,0.6-1c1.1-1.4,2.5-2.5,4.1-3.2c1-0.5,2.1-0.4,3.1,0.1
				c0.8,0.4,1.5,1.1,2.1,1.8c1.4,1.8,2.4,3.7,3.3,5.8c2.1,4.8,3.4,9.8,4.1,15c0.6,4.3,0.7,8.7,0.5,13.1c-0.6,10.1-3.5,19.4-9.6,27.5
				C341.7,348,340.9,349,340,350z"/>
		</g>
		<g>
			<path class="st19" d="M348.8,176.9c-0.5-0.2-1-0.1-1.4,0c-0.9,0.3-1.8,0.7-2.7,0.9c-0.9,0.3-1.9,0.6-2.9,0.8
				c-0.7,0.2-1.4,0.1-2.1-0.2c-1.5-0.6-2.1-2-1.4-3.5c0.3-0.8,0.9-1.4,1.6-1.8c0.6-0.3,1.3-0.7,2-0.8c2.8-0.7,5.6-1.2,8.5-1.5
				c1.3-0.1,2.6,0.2,3.7,1c1,0.7,1.4,1.7,1.5,2.9c0.1,2.5-0.7,4.7-1.9,6.8c-0.9,1.5-1.8,2.9-2.7,4.4c-0.6,1-1.1,2.1-1.4,3.2
				c-0.1,0.3-0.1,0.7-0.1,1.1c0.5,0,0.9,0,1.3-0.1c1.1-0.3,2.2-0.6,3.2-1c1.1-0.4,2.3-0.8,3.5-1c1-0.1,1.9,0.1,2.8,0.7
				c0.9,0.7,1.2,1.7,0.8,2.8c-0.4,0.9-1,1.6-1.9,2c-0.9,0.3-1.8,0.7-2.8,0.8c-2.6,0.2-5.2,0.8-7.7,1.6c-0.8,0.2-1.6,0.4-2.4,0.5
				c-2.8,0.4-5-1.5-5-4.3c0-1.1,0.3-2.2,0.7-3.2c0.5-1,1-1.9,1.6-2.8c1.2-1.9,2.4-3.7,3.6-5.6c0.5-0.8,0.9-1.7,1.3-2.5
				C348.6,177.7,348.7,177.3,348.8,176.9z"/>
			<path class="st19" d="M341,204.8c-0.3-0.1-0.5-0.3-0.8-0.3c-0.8-0.1-1.7-0.2-2.5-0.3c-1-0.1-2-0.3-2.8-0.8
				c-0.3-0.2-0.5-0.4-0.7-0.6c-0.7-1-0.5-2.2,0.6-2.8c0.4-0.2,0.9-0.3,1.3-0.4c0.9-0.1,1.8,0,2.7,0.4c1.6,0.7,3.2,1.3,4.7,2
				c0.6,0.3,1.1,0.6,1.6,1c1.4,1.3,1.5,3.6,0.2,5.1c-0.6,0.6-1.2,1.2-1.9,1.6c-1,0.6-2,1.1-3,1.6c-0.9,0.5-1.9,1-2.8,1.5
				c-0.2,0.1-0.4,0.4-0.8,0.6c0.3,0.1,0.5,0.2,0.7,0.3c0.7,0.2,1.5,0.3,2.2,0.4c0.9,0.2,1.7,0.4,2.5,0.8c1.2,0.8,1.5,2.2,0.7,3.3
				c-0.4,0.5-0.9,0.8-1.5,0.9c-1.1,0.2-2.2,0.1-3.2-0.4c-2.3-1.2-4.8-2-7.3-2.6c-0.4-0.1-0.8-0.3-1.2-0.5c-1.1-0.7-1.4-1.9-0.7-3
				c0.3-0.5,0.7-0.9,1.1-1.2c0.8-0.5,1.8-1,2.7-1.4c1.7-0.8,3.5-1.5,5.2-2.3c0.8-0.4,1.6-0.9,2.3-1.4
				C340.7,205.7,341,205.3,341,204.8z"/>
			<path class="st19" d="M347.7,237.5c0.6,0.1,1.2,0.1,1.7,0.2c1,0.1,1.9,0.2,2.9,0.4c0.5,0.1,0.9,0.3,1.3,0.5
				c1.1,0.7,1,2.2-0.1,2.8c-0.6,0.4-1.4,0.4-2,0.2c-1.8-0.6-3.7-0.7-5.6-1.1c-0.4-0.1-0.9-0.2-1.3-0.3c-0.3-0.1-0.7-0.2-1-0.4
				c-1.6-0.9-1.9-2.8-0.5-4c0.6-0.5,1.4-0.9,2.1-1.3c1.1-0.6,2.2-1,3.3-1.6c0.8-0.4,1.6-0.9,2.4-1.6c-0.2-0.1-0.3-0.3-0.5-0.3
				c-0.6-0.1-1.3-0.3-1.9-0.4c-0.6-0.1-1.3-0.1-1.9-0.3c-0.5-0.1-0.9-0.3-1.3-0.5c-1.1-0.8-1-2.3,0.3-2.8c0.4-0.2,1-0.3,1.5-0.2
				c1.9,0.1,3.8,0.7,5.6,1.3c0.4,0.1,0.8,0.4,1.2,0.7c0.2,0.1,0.3,0.3,0.5,0.4c0.8,0.8,1,1.8,0.6,2.9c-0.7,1.7-2,2.7-3.7,3.5
				c-1.1,0.5-2.1,1-3.2,1.5c-0.2,0.1-0.3,0.2-0.4,0.3C347.7,237.4,347.7,237.4,347.7,237.5z"/>
		</g>
		<path class="st20" d="M115.4,180c0.2-1.4-0.1-2.6-1.1-3.6c-1.2-1.1-2.6-1.6-4.1-1.5c-1.3,0-2.6,0.3-3.8,0.7
			c-4.6,1.6-7.7,4.6-8.9,9.4c-0.1,0.3-0.3,0.5-0.5,0.7c-2.3,1.5-4.7,2.9-7,4.4c-0.7,0.5-1.5,1-2.2,1.4c-0.4-1-0.8-2-1.2-3
			c-0.6-1.5-1.3-2.9-2-4.3c-0.1-0.2-0.2-0.4-0.2-0.5c0.4-0.6,0.8-1.1,1-1.6c0.2-0.5,0.3-1.1,0.4-1.7c0.1-1.8-0.1-3.6-0.7-5.3
			c-0.9-2.6-1.9-5.2-2.8-7.8c-0.1-0.3-0.3-0.6-0.4-0.9c-0.2-0.5-0.7-0.8-1.2-0.9c-0.6-0.1-1.2,0.3-1.1,0.9c0,0.5,0.1,1,0.3,1.5
			c0.5,1.6,1.1,3.1,1.6,4.7c0.6,1.9,1.2,3.8,1.5,5.8c0,0.2,0.1,0.4,0.1,0.6c0,0.1,0,0.1,0,0.2c-0.2-0.1-0.2-0.3-0.3-0.5
			c-1.2-3.2-2.4-6.5-3.5-9.7c-0.2-0.7-0.5-1.3-0.8-2c-0.1-0.2-0.2-0.4-0.3-0.5c-0.2-0.2-0.4-0.2-0.6-0.2c-0.2,0.1-0.4,0.2-0.4,0.5
			c0,0.3,0,0.5,0.1,0.8c0.7,2.4,1.5,4.9,2.2,7.3c0.4,1.2,0.8,2.4,1.2,3.7c0.1,0.2,0.1,0.4,0.1,0.7c-0.1-0.1-0.1-0.2-0.2-0.3
			c-1.2-2.7-2.4-5.5-3.6-8.2c-0.3-0.7-0.6-1.5-0.9-2.2c-0.1-0.3-0.3-0.6-0.5-0.9c-0.1-0.2-0.4-0.2-0.6-0.2c-0.3,0.1-0.4,0.3-0.4,0.5
			c0,0.2,0,0.5,0.1,0.7c0.7,2.7,1.4,5.4,2.3,8c0.3,1,0.7,2.1,1,3.1c0,0.1,0.1,0.3,0.1,0.4c0,0-0.1,0-0.1,0.1
			c-0.1-0.2-0.3-0.4-0.4-0.6c-1.1-2.1-2.2-4.3-3.3-6.4c-0.7-1.4-1.5-2.8-2.2-4.1c-0.1-0.2-0.3-0.4-0.5-0.5c-0.6-0.4-1.4,0-1.4,0.7
			c0,0.3,0,0.5,0.1,0.8c1.3,3.9,2.8,7.7,5.1,11.2c0.4,0.7,0.9,1.3,1.4,1.9c1,1.2,2.3,1.8,3.8,1.7c0.1,0,0.1,0,0.2,0
			c0,0,0.1,0.1,0.1,0.1c0.6,2.1,1.5,4.1,2.2,6.1c0.3,0.9,0.7,1.8,1,2.7c-0.6,0.4-1.2,0.8-1.8,1.2c-3.9,2.6-7.8,5.2-11.7,7.8
			c-1.1,0.7-2,1.6-3,2.5c-0.6,0.5-1,1.2-1.2,1.9c-0.3,1.1,0.5,2.2,1.7,2.2c0.4,0,0.8-0.1,1.1-0.2c0.8-0.4,1.6-0.7,2.4-1.2
			c1.7-1,3.5-2.1,5.1-3.2c3-2.1,6.1-4.1,9.1-6.2c0.5,1.4,1.1,2.8,1.6,4.2c1.3,3.3,2.5,6.7,4.1,9.9c0.7,1.4,1.4,2.8,2.2,4.2
			c0.3,0.6,0.7,1.1,1.2,1.6c0.3,0.4,0.8,0.6,1.3,0.7c0.7,0.1,1.3-0.2,1.5-0.9c0.2-0.7,0.2-1.5,0-2.3c-0.2-0.9-0.5-1.8-0.9-2.7
			c-1.3-3.1-2.5-6.2-3.8-9.3c-1.1-2.7-2.3-5.4-3.4-8.1c0.5-0.3,0.9-0.6,1.4-0.9c2.5-1.8,5-3.6,7.6-5.2c0.3-0.2,0.6-0.2,0.9-0.1
			c0.4,0.2,0.9,0.3,1.4,0.3c1.8,0.2,3.6-0.1,5.3-0.7c2.4-0.9,4.5-2.2,6.3-4c1.3-1.2,2.2-2.6,2.8-4.5
			C115.2,180.7,115.3,180.3,115.4,180z"/>
	</g>
</g>
</svg>
